<svg width="22" height="17" viewBox="0 0 22 17" fill="none" xmlns="http://www.w3.org/2000/svg">
<rect x="22" y="5" width="12" height="22" transform="rotate(90 22 5)" fill="#DFDFDF"/>
<path d="M15.4618 -1.17626e-07C15.759 -5.26628e-08 16 0.240957 16 0.538193L16 2.46181C16 2.75904 15.759 3 15.4618 3L13.5382 3C13.241 3 13 2.75904 13 2.46181L13 0.538192C13 0.240957 13.241 -6.03008e-07 13.5382 -5.38045e-07L15.4618 -1.17626e-07Z" fill="#383838"/>
<path d="M8.46181 -1.17626e-07C8.75904 -5.26628e-08 9 0.240957 9 0.538193L9 2.46181C9 2.75904 8.75904 3 8.46181 3L6.53819 3C6.24096 3 6 2.75904 6 2.46181L6 0.538192C6 0.240957 6.24096 -6.03008e-07 6.53819 -5.38045e-07L8.46181 -1.17626e-07Z" fill="#383838"/>
</svg>
