<svg width="100" height="100" viewBox="0 0 100 100" fill="none" xmlns="http://www.w3.org/2000/svg">
<ellipse cx="50.0007" cy="50.0002" rx="27.7775" ry="27.7778" fill="white"/>
<path d="M55.0175 -1.1645e-07C55.3147 -5.21365e-08 55.5557 0.240957 55.5557 0.538193L55.5557 10.5729C55.5557 10.8702 55.3147 11.1111 55.0175 11.1111L44.9828 11.1111C44.6856 11.1111 44.4446 10.8702 44.4446 10.5729L44.4446 0.538191C44.4446 0.240955 44.6856 -2.35199e-06 44.9828 -2.28768e-06L55.0175 -1.1645e-07Z" fill="#383838"/>
<path d="M55.0175 88.8889C55.3147 88.8889 55.5557 89.1299 55.5557 89.4271L55.5557 99.4618C55.5557 99.7591 55.3147 100 55.0175 100L44.9828 100C44.6856 100 44.4446 99.7591 44.4446 99.4618L44.4446 89.4271C44.4446 89.1299 44.6856 88.8889 44.9828 88.8889L55.0175 88.8889Z" fill="#383838"/>
<path d="M100 55.017C100 55.3142 99.759 55.5552 99.4618 55.5552L89.4272 55.5552C89.1299 55.5552 88.889 55.3142 88.889 55.017L88.889 44.9823C88.889 44.685 89.1299 44.4441 89.4272 44.4441L99.4618 44.4441C99.759 44.4441 100 44.685 100 44.9823L100 55.017Z" fill="#383838"/>
<path d="M11.1108 55.017C11.1108 55.3142 10.8699 55.5552 10.5726 55.5552L0.538011 55.5552C0.240775 55.5552 -0.000181493 55.3142 -0.000181415 55.017L-0.000178783 44.9823C-0.000178705 44.685 0.240778 44.4441 0.538014 44.4441L10.5727 44.4441C10.8699 44.4441 11.1108 44.685 11.1108 44.9823L11.1108 55.017Z" fill="#383838"/>
<path d="M88.761 18.0521C88.9712 18.2622 88.9712 18.603 88.761 18.8132L81.9461 25.6282C81.7359 25.8384 81.3951 25.8384 81.185 25.6282L74.37 18.8132C74.1598 18.603 74.1598 18.2622 74.37 18.0521L81.185 11.237C81.3951 11.0269 81.7359 11.0269 81.9461 11.237L88.761 18.0521Z" fill="#383838"/>
<path d="M25.6282 81.1868C25.8384 81.397 25.8384 81.7378 25.6282 81.9479L18.8133 88.763C18.6031 88.9731 18.2623 88.9731 18.0521 88.763L11.2372 81.9479C11.027 81.7378 11.027 81.397 11.2372 81.1868L18.0522 74.3718C18.2623 74.1616 18.6031 74.1616 18.8133 74.3718L25.6282 81.1868Z" fill="#383838"/>
<path d="M81.9479 88.7625C81.7378 88.9727 81.397 88.9727 81.1868 88.7625L74.3719 81.9475C74.1617 81.7373 74.1617 81.3965 74.3719 81.1864L81.1868 74.3713C81.397 74.1612 81.7378 74.1612 81.9479 74.3713L88.7629 81.1864C88.9731 81.3965 88.9731 81.7373 88.7629 81.9475L81.9479 88.7625Z" fill="#383838"/>
<path d="M18.8137 25.6297C18.6035 25.8399 18.2627 25.8399 18.0525 25.6297L11.2376 18.8147C11.0274 18.6045 11.0274 18.2637 11.2376 18.0535L18.0525 11.2385C18.2627 11.0284 18.6035 11.0284 18.8137 11.2385L25.6286 18.0536C25.8388 18.2637 25.8388 18.6045 25.6286 18.8147L18.8137 25.6297Z" fill="#383838"/>
</svg>
