<svg width="24" height="24" viewBox="0 0 24 24" fill="none" xmlns="http://www.w3.org/2000/svg">
<rect x="5" width="14" height="24" fill="#DFDFDF"/>
<path d="M0.640013 6C0.286543 6 3.75757e-08 5.71346 8.39276e-08 5.35999L3.09475e-07 3.64001C3.55827e-07 3.28654 0.286544 3 0.640013 3L2.35999 3C2.71346 3 3 3.28654 3 3.64001L3 5.35999C3 5.71346 2.71346 6 2.35999 6L0.640013 6Z" fill="#383838"/>
<path d="M21.64 6C21.2865 6 21 5.71346 21 5.35999L21 3.64001C21 3.28654 21.2865 3 21.64 3L23.36 3C23.7135 3 24 3.28654 24 3.64001L24 5.35999C24 5.71346 23.7135 6 23.36 6L21.64 6Z" fill="#383838"/>
<path d="M0.640013 13C0.286543 13 3.75757e-08 12.7135 8.39276e-08 12.36L3.09475e-07 10.64C3.55827e-07 10.2865 0.286544 10 0.640013 10L2.35999 10C2.71346 10 3 10.2865 3 10.64L3 12.36C3 12.7135 2.71346 13 2.35999 13L0.640013 13Z" fill="#383838"/>
<path d="M21.64 13C21.2865 13 21 12.7135 21 12.36L21 10.64C21 10.2865 21.2865 10 21.64 10L23.36 10C23.7135 10 24 10.2865 24 10.64L24 12.36C24 12.7135 23.7135 13 23.36 13L21.64 13Z" fill="#383838"/>
<path d="M0.640013 20C0.286543 20 3.75757e-08 19.7135 8.39276e-08 19.36L3.09475e-07 17.64C3.55827e-07 17.2865 0.286544 17 0.640013 17L2.35999 17C2.71346 17 3 17.2865 3 17.64L3 19.36C3 19.7135 2.71346 20 2.35999 20L0.640013 20Z" fill="#383838"/>
<path d="M21.64 20C21.2865 20 21 19.7135 21 19.36L21 17.64C21 17.2865 21.2865 17 21.64 17L23.36 17C23.7135 17 24 17.2865 24 17.64L24 19.36C24 19.7135 23.7135 20 23.36 20L21.64 20Z" fill="#383838"/>
</svg>
