<svg width="100" height="100" viewBox="0 0 100 100" fill="none" xmlns="http://www.w3.org/2000/svg">
<path d="M-9.41007e-08 34.4667C-4.21303e-08 34.1694 0.240957 33.9285 0.538193 33.9285L10.1761 33.9285C10.4733 33.9285 10.7143 34.1694 10.7143 34.4667L10.7143 44.1046C10.7143 44.4018 10.4733 44.6427 10.1761 44.6427L0.538191 44.6427C0.240956 44.6427 -1.83121e-06 44.4018 -1.77924e-06 44.1045L-9.41007e-08 34.4667Z" fill="#383838"/>
<path d="M-9.41007e-08 55.8954C-4.21303e-08 55.5981 0.240957 55.3572 0.538193 55.3572L10.1761 55.3572C10.4733 55.3572 10.7143 55.5981 10.7143 55.8954L10.7143 65.5333C10.7143 65.8305 10.4733 66.0715 10.1761 66.0715L0.538191 66.0715C0.240956 66.0715 -1.83121e-06 65.8305 -1.77924e-06 65.5333L-9.41007e-08 55.8954Z" fill="#383838"/>
<path d="M89.2866 34.4667C89.2866 34.1694 89.5276 33.9285 89.8248 33.9285L99.4627 33.9285C99.7599 33.9285 100.001 34.1694 100.001 34.4667L100.001 44.1046C100.001 44.4018 99.7599 44.6427 99.4627 44.6427L89.8248 44.6427C89.5276 44.6427 89.2866 44.4018 89.2866 44.1045L89.2866 34.4667Z" fill="#383838"/>
<path d="M89.2856 55.8954C89.2856 55.5981 89.5266 55.3572 89.8238 55.3572L99.4617 55.3572C99.759 55.3572 99.9999 55.5981 99.9999 55.8954L99.9999 65.5333C99.9999 65.8305 99.759 66.0715 99.4617 66.0715L89.8238 66.0715C89.5266 66.0715 89.2856 65.8305 89.2856 65.5333L89.2856 55.8954Z" fill="#383838"/>
<path d="M65.5331 -1.17626e-07C65.8303 -5.26629e-08 66.0713 0.240957 66.0713 0.538193L66.0713 10.1761C66.0713 10.4733 65.8303 10.7143 65.5331 10.7143L55.8952 10.7143C55.598 10.7143 55.357 10.4733 55.357 10.1761L55.357 0.538191C55.357 0.240955 55.598 -2.28902e-06 55.8952 -2.22405e-06L65.5331 -1.17626e-07Z" fill="#383838"/>
<path d="M44.1044 -1.17626e-07C44.4016 -5.26629e-08 44.6426 0.240957 44.6426 0.538193L44.6426 10.1761C44.6426 10.4733 44.4016 10.7143 44.1044 10.7143L34.4665 10.7143C34.1693 10.7143 33.9283 10.4733 33.9283 10.1761L33.9283 0.538191C33.9283 0.240955 34.1693 -2.28902e-06 34.4665 -2.22405e-06L44.1044 -1.17626e-07Z" fill="#383838"/>
<path d="M65.5331 89.2859C65.8303 89.2859 66.0713 89.5268 66.0713 89.8241L66.0713 99.462C66.0713 99.7592 65.8303 100 65.5331 100L55.8952 100C55.598 100 55.357 99.7592 55.357 99.462L55.357 89.8241C55.357 89.5268 55.598 89.2859 55.8952 89.2859L65.5331 89.2859Z" fill="#383838"/>
<path d="M44.1044 89.2854C44.4016 89.2854 44.6426 89.5264 44.6426 89.8236L44.6426 99.4615C44.6426 99.7587 44.4016 99.9997 44.1044 99.9997L34.4665 99.9997C34.1693 99.9997 33.9283 99.7587 33.9283 99.4615L33.9283 89.8236C33.9283 89.5264 34.1693 89.2854 34.4665 89.2854L44.1044 89.2854Z" fill="#383838"/>
<rect x="17.8574" y="16.0713" width="64.2857" height="64.2857" fill="#DFDFDF"/>
</svg>
