<svg width="28" height="31" viewBox="0 0 28 31" fill="none" xmlns="http://www.w3.org/2000/svg">
<path d="M25.64 11C25.2865 11 25 10.7135 25 10.36L25 8.64001C25 8.28654 25.2865 8 25.64 8L27.36 8C27.7135 8 28 8.28654 28 8.64001L28 10.36C28 10.7135 27.7135 11 27.36 11L25.64 11Z" fill="#383838"/>
<path d="M0.640013 11C0.286543 11 3.75757e-08 10.7135 8.39276e-08 10.36L3.09475e-07 8.64001C3.55827e-07 8.28654 0.286544 8 0.640013 8L2.35999 8C2.71346 8 3 8.28654 3 8.64001L3 10.36C3 10.7135 2.71346 11 2.35999 11L0.640013 11Z" fill="#383838"/>
<path d="M25.64 16C25.2865 16 25 15.7135 25 15.36L25 13.64C25 13.2865 25.2865 13 25.64 13L27.36 13C27.7135 13 28 13.2865 28 13.64L28 15.36C28 15.7135 27.7135 16 27.36 16L25.64 16Z" fill="#383838"/>
<path d="M0.640013 16C0.286543 16 3.75757e-08 15.7135 8.39276e-08 15.36L3.09475e-07 13.64C3.55827e-07 13.2865 0.286544 13 0.640013 13L2.35999 13C2.71346 13 3 13.2865 3 13.64L3 15.36C3 15.7135 2.71346 16 2.35999 16L0.640013 16Z" fill="#383838"/>
<path d="M25.64 21C25.2865 21 25 20.7135 25 20.36L25 18.64C25 18.2865 25.2865 18 25.64 18L27.36 18C27.7135 18 28 18.2865 28 18.64L28 20.36C28 20.7135 27.7135 21 27.36 21L25.64 21Z" fill="#383838"/>
<path d="M0.640013 21C0.286543 21 3.75757e-08 20.7135 8.39276e-08 20.36L3.09475e-07 18.64C3.55827e-07 18.2865 0.286544 18 0.640013 18L2.35999 18C2.71346 18 3 18.2865 3 18.64L3 20.36C3 20.7135 2.71346 21 2.35999 21L0.640013 21Z" fill="#383838"/>
<path d="M25.64 26C25.2865 26 25 25.7135 25 25.36L25 23.64C25 23.2865 25.2865 23 25.64 23L27.36 23C27.7135 23 28 23.2865 28 23.64L28 25.36C28 25.7135 27.7135 26 27.36 26L25.64 26Z" fill="#383838"/>
<path d="M0.640013 26C0.286543 26 3.75757e-08 25.7135 8.39276e-08 25.36L3.09475e-07 23.64C3.55827e-07 23.2865 0.286544 23 0.640013 23L2.35999 23C2.71346 23 3 23.2865 3 23.64L3 25.36C3 25.7135 2.71346 26 2.35999 26L0.640013 26Z" fill="#383838"/>
<path d="M5 5V31H12L12 11.9777H16L16 31H23V5H5Z" fill="#DFDFDF"/>
<path d="M9.64001 3C9.28654 3 9 2.71346 9 2.35999L9 0.640013C9 0.286543 9.28654 -4.39261e-07 9.64001 -3.9291e-07L11.36 -1.67362e-07C11.7135 -1.2101e-07 12 0.286544 12 0.640013L12 2.35999C12 2.71346 11.7135 3 11.36 3L9.64001 3Z" fill="#383838"/>
<path d="M16.64 3C16.2865 3 16 2.71346 16 2.35999L16 0.640013C16 0.286543 16.2865 -4.39261e-07 16.64 -3.9291e-07L18.36 -1.67362e-07C18.7135 -1.2101e-07 19 0.286544 19 0.640013L19 2.35999C19 2.71346 18.7135 3 18.36 3L16.64 3Z" fill="#383838"/>
</svg>
