<svg width="26" height="31" viewBox="0 0 26 31" fill="none" xmlns="http://www.w3.org/2000/svg">
<path d="M4.64001 18C4.28654 18 4 17.7135 4 17.36L4 15.64C4 15.2865 4.28654 15 4.64001 15L6.35999 15C6.71346 15 7 15.2865 7 15.64L7 17.36C7 17.7135 6.71346 18 6.35999 18L4.64001 18Z" fill="#383838"/>
<path d="M14 0.640013C14 0.286543 14.2865 5.01009e-08 14.64 1.11903e-07L16.36 4.12633e-07C16.7135 4.74436e-07 17 0.286544 17 0.640014L17 2.35999C17 2.71346 16.7135 3 16.36 3L14.64 3C14.2865 3 14 2.71346 14 2.35999L14 0.640013Z" fill="#383838"/>
<path d="M19.64 18C19.2865 18 19 17.7135 19 17.36L19 15.64C19 15.2865 19.2865 15 19.64 15L21.36 15C21.7135 15 22 15.2865 22 15.64L22 17.36C22 17.7135 21.7135 18 21.36 18L19.64 18Z" fill="#383838"/>
<path d="M4.64001 23C4.28654 23 4 22.7135 4 22.36L4 20.64C4 20.2865 4.28654 20 4.64001 20L6.35999 20C6.71346 20 7 20.2865 7 20.64L7 22.36C7 22.7135 6.71346 23 6.35999 23L4.64001 23Z" fill="#383838"/>
<path d="M9 0.640013C9 0.286543 9.28654 5.01009e-08 9.64001 1.11903e-07L11.36 4.12633e-07C11.7135 4.74436e-07 12 0.286544 12 0.640014L12 2.35999C12 2.71346 11.7135 3 11.36 3L9.64001 3C9.28654 3 9 2.71346 9 2.35999L9 0.640013Z" fill="#383838"/>
<path d="M4 0.640013C4 0.286543 4.28654 5.01009e-08 4.64001 1.11903e-07L6.35999 4.12633e-07C6.71346 4.74436e-07 7 0.286544 7 0.640014L7 2.35999C7 2.71346 6.71346 3 6.35999 3L4.64001 3C4.28654 3 4 2.71346 4 2.35999L4 0.640013Z" fill="#383838"/>
<path d="M19 0.640013C19 0.286543 19.2865 5.01009e-08 19.64 1.11903e-07L21.36 4.12633e-07C21.7135 4.74436e-07 22 0.286544 22 0.640014L22 2.35999C22 2.71346 21.7135 3 21.36 3L19.64 3C19.2865 3 19 2.71346 19 2.35999L19 0.640013Z" fill="#383838"/>
<path d="M19.64 23C19.2865 23 19 22.7135 19 22.36L19 20.64C19 20.2865 19.2865 20 19.64 20L21.36 20C21.7135 20 22 20.2865 22 20.64L22 22.36C22 22.7135 21.7135 23 21.36 23L19.64 23Z" fill="#383838"/>
<path d="M4.64001 28C4.28654 28 4 27.7135 4 27.36L4 25.64C4 25.2865 4.28654 25 4.64001 25L6.35999 25C6.71346 25 7 25.2865 7 25.64L7 27.36C7 27.7135 6.71346 28 6.35999 28L4.64001 28Z" fill="#383838"/>
<path d="M19.64 28C19.2865 28 19 27.7135 19 27.36L19 25.64C19 25.2865 19.2865 25 19.64 25L21.36 25C21.7135 25 22 25.2865 22 25.64L22 27.36C22 27.7135 21.7135 28 21.36 28L19.64 28Z" fill="#383838"/>
<rect y="5" width="26" height="7" fill="#DFDFDF"/>
<rect x="9" y="12" width="8" height="19" fill="#DFDFDF"/>
</svg>
