<svg width="1260" height="1903" viewBox="0 0 1260 1903" fill="none" xmlns="http://www.w3.org/2000/svg">
<path d="M11.8797 79.7773H8.0647V1823.78H11.8797V79.7773Z" fill="#FFFEFC"/>
<path d="M1180.9 1890.81H79.7324V1894.63H1180.9V1890.81Z" fill="#FFFEFC"/>
<path d="M1250.12 79.7773H1246.31V1825.14H1250.12V79.7773Z" fill="#FFFEFC"/>
<path d="M1180.9 8.10992H79.7324V11.9249H1180.9V8.10992Z" fill="#FFFEFC"/>
<path d="M40.22 39.4474C42.4 40.2649 44.8525 40.8099 47.305 40.8099C49.7575 40.8099 51.9375 40.2649 53.845 39.1749C57.66 36.7224 60.1125 32.3624 59.5675 28.0024C59.295 25.8224 58.4775 23.9149 57.115 22.8249C56.57 22.2799 55.7525 22.0074 54.935 22.0074C54.6625 22.0074 54.1175 22.0074 53.845 22.0074C53.5725 22.0074 53.3 22.0074 53.3 22.0074L52.755 22.2799C51.12 22.8249 50.03 24.1874 50.3025 25.8224C50.3025 26.6399 50.8475 27.4574 51.665 27.7299C52.4825 28.0024 53.5725 28.0024 54.6625 27.4574L54.935 27.7299C54.1175 28.5474 52.755 29.6374 51.12 29.3649C49.485 29.3649 48.1225 28.0024 47.305 26.6399C46.4875 25.0049 46.76 23.3699 47.305 21.7349C48.1225 20.0999 49.485 19.0099 50.8475 18.4649L51.9375 17.9199C52.21 17.9199 52.755 17.6474 53.0275 17.6474C53.845 17.3749 54.6625 17.3749 55.48 17.3749C57.115 17.6474 58.75 18.4649 59.84 19.5549C60.93 20.6449 61.7475 22.0074 62.02 23.3699C62.565 24.7324 62.565 26.0949 62.8375 27.4574C62.8375 32.9074 59.5675 38.0849 54.935 40.5374C52.4825 41.6274 49.7575 42.1724 47.305 41.6274C44.8525 41.3549 42.4 40.5374 40.22 39.1749V39.4474Z" fill="#FFFEFC"/>
<path d="M59.2949 35.0873C61.2024 30.9998 61.4749 26.0948 61.2024 21.7348C61.2024 19.5548 60.6574 17.1023 61.2024 14.6498C61.4749 12.1973 62.2924 9.74483 63.6549 7.29233C65.0174 5.11233 66.9249 2.93233 69.6499 1.84233C71.0124 1.29733 72.6474 1.02483 74.0099 1.29733C74.8274 1.29733 75.3724 1.56983 76.1899 1.84233C76.4624 1.84233 77.0074 2.11483 77.2799 2.38733C77.5524 2.65983 78.0974 2.65983 78.3699 2.93233C78.9149 3.47733 79.7324 4.02233 80.2774 4.56733C80.8224 5.11233 81.0949 5.92983 81.3674 6.74733C81.9124 8.38233 81.9124 10.0173 81.3674 11.3798C80.8224 12.7423 79.4599 14.1048 78.0974 14.3773C76.7349 14.6498 75.3724 14.3773 74.2824 13.5598V13.0148C75.3724 13.0148 76.4624 12.7423 77.2799 12.1973C78.0974 11.6523 78.3699 10.8348 78.3699 10.2898C78.3699 9.47233 78.0974 8.65483 77.8249 8.10983C77.5524 7.56483 77.0074 7.01983 76.1899 6.74733C75.9174 6.74733 75.9174 6.47483 75.6449 6.47483L75.0999 6.20233C74.5549 6.20233 74.2824 5.92983 74.0099 5.92983C73.1924 5.92983 72.3749 5.92983 71.5574 6.20233C70.7399 6.47483 69.9224 6.74733 69.1049 7.29233C68.2874 7.83733 67.7424 8.65483 66.9249 9.47233C65.8349 11.1073 64.7449 13.0148 64.4724 15.1948C63.9274 17.3748 63.9274 19.5548 63.9274 22.0073C63.6549 24.4598 63.3824 26.6398 62.8374 29.0923C62.2924 31.2723 61.4749 33.7248 60.1124 35.6323L59.2949 35.0873Z" fill="#FFFEFC"/>
<path d="M29.8647 29.6373C28.2297 27.1848 27.4122 24.4598 26.8672 21.4623C26.5947 19.8273 26.5947 18.4648 27.1397 16.5573C27.6847 14.9223 28.7747 13.2873 30.4097 12.4698L31.4997 11.9248L32.5897 11.3798C32.8622 11.3798 32.8622 11.1073 33.1347 11.1073L33.6797 10.8348C34.2247 10.8348 34.4972 10.5623 35.0422 10.5623C35.5872 10.5623 36.1322 10.5623 36.6772 10.8348C37.2222 11.1073 37.7672 11.1073 38.3122 11.3798C39.4022 11.9248 39.9472 12.7423 40.4922 13.5598C41.5822 15.4673 41.5822 17.3748 41.0372 19.2823C40.7647 20.0998 40.2197 20.9173 39.1297 21.4623C38.8572 21.7348 38.3122 21.7348 37.7672 22.0073C37.2222 22.0073 36.9497 22.0073 36.4047 22.0073V21.4623C37.7672 20.6448 37.7672 19.5548 37.7672 18.7373C37.4947 17.6473 37.2222 16.8298 36.6772 16.2848C36.1322 15.7398 35.5872 15.4673 34.7697 15.1948C34.4972 15.1948 34.2247 15.1948 34.2247 15.1948H33.9522H33.6797C33.4072 15.1948 33.1347 15.1948 32.8622 15.1948L32.0447 15.4673C31.2272 16.0123 30.4097 16.5573 29.8647 17.6473C29.3197 18.7373 29.0472 19.8273 29.0472 21.1898C29.0472 23.9148 29.5922 26.6398 30.4097 29.3648L29.8647 29.6373Z" fill="#FFFEFC"/>
<path d="M37.7673 30.7273H31.2273V37.2673H37.7673V30.7273Z" fill="#FFFEFC"/>
<path d="M39.9475 39.9923C41.31 42.1723 42.1275 44.6248 42.4 47.0773C42.6725 49.5298 42.4 52.2548 41.31 54.7073C38.8575 59.3398 33.68 62.8823 28.23 62.6098C26.8675 62.6098 25.505 62.3373 24.1425 61.7923C22.78 61.2473 21.4175 60.4298 20.3275 59.6123C19.2375 58.5223 18.42 56.8873 18.1475 55.2523C18.1475 54.4348 18.1475 53.6173 18.42 52.7998C18.42 52.5273 18.6925 51.9823 18.6925 51.7098L19.2375 50.6198C20.055 49.2573 20.8725 47.8948 22.5075 47.0773C24.1425 46.2598 25.7775 46.2598 27.4125 47.0773C29.0475 47.6223 30.1375 49.2573 30.1375 50.8923C30.1375 52.5273 29.32 53.8898 28.5025 54.7073L28.23 54.4348C28.775 53.3448 28.775 52.2548 28.5025 51.4373C28.23 50.6198 27.4125 50.0748 26.595 50.0748C24.96 49.8023 23.5975 50.8923 23.0525 52.5273L22.78 53.0723C22.78 53.3448 22.78 53.6173 22.78 53.6173C22.5075 54.1623 22.78 54.4348 22.78 54.7073C23.0525 55.5248 23.0525 56.0698 23.5975 56.8873C24.6875 58.2498 26.595 59.0673 28.775 59.3398C33.135 59.8848 37.495 57.4323 39.9475 53.6173C41.0375 51.7098 41.5825 49.5298 41.5825 47.0773C41.5825 44.6248 41.0375 42.4448 40.22 39.9923H39.9475Z" fill="#FFFEFC"/>
<path d="M35.3149 59.6124C33.4074 60.9749 30.9549 61.7924 28.7749 62.3374C26.5949 62.8824 24.1424 63.1549 21.6899 63.4274C19.2374 63.4274 17.0574 63.4274 14.8774 63.9724C12.6974 64.5174 10.7899 65.3349 9.15491 66.4249C8.33741 66.9699 7.79241 67.7874 6.97491 68.6049C6.42991 69.4224 6.15741 70.2399 5.88491 71.0574C5.61241 71.8749 5.61241 72.6924 5.61241 73.5099C5.61241 74.0549 5.88491 74.3274 5.88491 74.5999L6.15741 75.1449C6.15741 75.4174 6.15741 75.4174 6.42991 75.6899C6.70241 76.5074 7.24741 77.0524 7.79241 77.3249C8.33741 77.8699 9.15491 77.8699 9.97241 77.8699C10.7899 77.8699 11.3349 77.5974 11.8799 76.7799C12.4249 75.9624 12.6974 75.1449 12.6974 73.7824H13.2424C13.7874 74.8724 14.3324 76.2349 14.0599 77.5974C13.7874 78.9599 12.4249 80.3224 11.0624 80.8674C9.69991 81.4124 7.79241 81.4124 6.42991 80.8674C5.61241 80.5949 5.06741 80.0499 4.24991 79.7774C3.70491 79.2324 3.15991 78.6874 2.61491 77.8699C2.34241 77.5974 2.06991 77.3249 2.06991 76.7799C1.79741 76.5074 1.79741 75.9624 1.52491 75.6899C1.25241 74.8724 1.25241 74.3274 0.979908 73.5099C0.707408 71.8749 1.25241 70.5124 1.52491 69.1499C2.61491 66.4249 4.79491 64.5174 6.97491 63.1549C9.15491 61.7924 11.6074 60.9749 14.3324 60.7024C16.7849 60.4299 19.2374 60.7024 21.4174 60.7024C26.0499 60.9749 30.6824 60.7024 34.7699 58.7949L35.3149 59.6124Z" fill="#FFFEFC"/>
<path d="M29.3197 30.1823C26.5947 29.3648 23.8697 28.8198 21.1447 28.8198C19.7822 28.8198 18.6922 29.0923 17.6022 29.6373C16.5122 30.1823 15.9672 30.9998 15.4222 31.8173L15.1497 32.6348C15.1497 32.9073 15.1497 33.1798 15.1497 33.4523V33.7248V33.9973C15.1497 34.2698 15.1497 34.5423 15.1497 34.5423C15.4222 35.3598 15.6947 35.9048 16.2397 36.4498C16.7847 36.9948 17.6022 37.5398 18.6922 37.5398C19.5097 37.5398 20.5997 37.5398 21.4172 36.1773H21.9622C21.9622 36.4498 22.2347 36.9948 21.9622 37.5398C21.9622 38.0848 21.6897 38.3573 21.4172 38.9023C20.8722 39.7198 20.0547 40.2648 19.2372 40.8098C17.3297 41.6273 15.4222 41.3548 13.5147 40.2648C12.6972 39.7198 11.8797 38.9023 11.3347 38.0848C11.0622 37.5398 11.0622 36.9948 10.7897 36.4498C10.5172 35.9048 10.7897 35.3598 10.5172 34.8148C10.5172 34.2698 10.5172 33.7248 10.7897 33.4523L11.0622 32.9073C11.0622 32.6348 11.3347 32.3623 11.3347 32.3623L11.8797 31.2723L12.4247 30.1823C13.2422 28.8198 14.8772 27.4573 16.5122 26.9123C18.1472 26.3673 19.7822 26.3673 21.4172 26.6398C24.4147 27.1848 27.1397 28.2748 29.5922 29.6373L29.3197 30.1823Z" fill="#FFFEFC"/>
<path d="M23.8699 11.6524C17.3299 14.1049 11.0624 11.1074 11.0624 11.1074C11.0624 11.1074 14.0599 17.3749 11.6074 23.9149C11.6074 23.9149 19.7824 22.8249 28.5024 28.5474C22.7799 19.8274 23.8699 11.6524 23.8699 11.6524Z" fill="#FFFEFC"/>
<path d="M37.373 37.6638V31.1238H30.833V37.6638H37.373Z" fill="#FFFEFC"/>
<path d="M1220.69 39.7198C1218.51 41.0823 1216.06 41.8998 1213.61 42.1723C1211.15 42.4448 1208.43 42.1723 1205.98 41.0823C1201.34 38.6298 1197.8 33.4523 1198.07 28.0023C1198.07 26.6398 1198.35 25.2773 1198.89 23.9148C1199.44 22.5523 1200.25 21.1898 1201.07 20.0998C1202.16 19.0098 1203.8 18.1923 1205.43 17.9198C1206.25 17.9198 1207.07 17.9198 1207.88 18.1923C1208.16 18.1923 1208.7 18.4648 1208.97 18.4648L1210.06 19.0098C1211.43 19.8273 1212.79 20.6448 1213.61 22.2798C1214.42 23.9148 1214.42 25.5498 1213.61 27.1848C1213.06 28.8198 1211.43 29.9098 1209.79 29.9098C1208.16 29.9098 1206.79 29.0923 1205.98 28.2748L1206.25 28.0023C1207.34 28.5473 1208.43 28.5473 1209.25 28.2748C1210.06 28.0023 1210.61 27.1848 1210.61 26.3673C1210.88 24.7323 1209.79 23.3698 1208.16 22.8248L1207.61 22.5523C1207.34 22.5523 1207.07 22.5523 1207.07 22.5523C1206.52 22.2798 1206.25 22.5523 1205.98 22.5523C1205.16 22.8248 1204.61 22.8248 1203.8 23.3698C1202.43 24.4598 1201.62 26.3673 1201.34 28.5473C1200.8 32.9073 1203.25 37.2673 1207.07 39.7198C1208.97 40.8098 1211.15 41.3548 1213.61 41.3548C1216.06 41.3548 1218.24 40.8098 1220.69 39.9923V39.7198Z" fill="#FFFEFC"/>
<path d="M1201.07 35.3599C1199.71 33.4524 1198.89 30.9999 1198.35 28.8199C1197.8 26.6399 1197.53 24.1874 1197.25 21.7349C1197.25 19.2824 1197.26 17.1024 1196.71 14.9224C1196.17 12.7424 1195.35 10.8349 1194.26 9.19989C1193.71 8.38239 1192.9 7.83739 1192.08 7.01989C1191.26 6.47489 1190.44 6.20239 1189.63 5.92989C1188.81 5.65739 1187.99 5.65739 1187.17 5.65739C1186.63 5.65739 1186.36 5.92989 1186.08 5.92989L1185.54 6.20239C1185.27 6.20239 1185.26 6.20239 1184.99 6.47489C1184.17 6.74739 1183.63 7.29239 1183.36 7.83739C1182.81 8.38239 1182.81 9.19989 1182.81 10.0174C1182.81 10.8349 1183.09 11.3799 1183.9 11.9249C1184.72 12.4699 1185.54 12.7424 1186.9 12.7424V13.2874C1185.81 13.8324 1184.45 14.3774 1183.09 14.1049C1181.72 13.8324 1180.36 12.4699 1179.82 11.1074C1179.27 9.74489 1179.27 7.83739 1179.82 6.47489C1180.09 5.65739 1180.63 5.11239 1180.9 4.29489C1181.45 3.74989 1182 3.20489 1182.81 2.65989C1183.09 2.38739 1183.36 2.11489 1183.9 2.11489C1184.18 1.84239 1184.72 1.84239 1184.99 1.56989C1185.81 1.29739 1186.36 1.29739 1187.17 1.02489C1188.81 0.75239 1190.17 1.29739 1191.53 1.56989C1194.26 2.65989 1196.17 4.83989 1197.53 7.01989C1198.89 9.19989 1199.71 11.6524 1199.98 14.3774C1200.25 16.8299 1199.98 19.2824 1199.98 21.4624C1199.71 26.0949 1199.98 30.7274 1201.89 34.8149L1201.07 35.3599Z" fill="#FFFEFC"/>
<path d="M1230.5 29.3648C1231.32 26.6398 1231.86 23.9148 1231.86 21.1898C1231.86 19.8273 1231.59 18.7373 1231.04 17.6473C1230.5 16.5573 1229.68 16.0123 1228.86 15.4673L1228.05 15.1948C1227.77 15.1948 1227.5 15.1948 1227.23 15.1948H1226.96H1226.68C1226.41 15.1948 1226.14 15.1948 1226.14 15.1948C1225.32 15.4673 1224.78 15.7398 1224.23 16.2848C1223.69 16.8298 1223.14 17.6473 1223.14 18.7373C1223.14 19.5548 1223.14 20.6448 1224.5 21.4623V22.0073C1224.23 22.0073 1223.69 22.2798 1223.14 22.0073C1222.6 22.0073 1222.32 21.7348 1221.78 21.4623C1220.96 20.9173 1220.42 20.0998 1219.87 19.2823C1219.05 17.3748 1219.33 15.4673 1220.42 13.5598C1220.96 12.7423 1221.78 11.9248 1222.6 11.3798C1223.14 11.1073 1223.69 11.1073 1224.23 10.8348C1224.78 10.5623 1225.32 10.8348 1225.87 10.5623C1226.41 10.5623 1226.96 10.5623 1227.23 10.8348L1227.77 11.1073C1228.05 11.1073 1228.32 11.3798 1228.32 11.3798L1229.41 11.9248L1230.5 12.4698C1231.86 13.2873 1233.22 14.9223 1233.77 16.5573C1234.31 18.1923 1234.31 19.8273 1234.04 21.4623C1233.5 24.4598 1232.41 27.1848 1231.04 29.6373L1230.5 29.3648Z" fill="#FFFEFC"/>
<path d="M1222.82 37.3379H1229.36V30.7979H1222.82V37.3379Z" fill="#FFFEFC"/>
<path d="M1221.23 40.2648C1220.42 42.4448 1219.87 44.8973 1219.87 47.3498C1219.87 49.8023 1220.42 51.9823 1221.51 53.8898C1223.96 57.7048 1228.32 60.1573 1232.68 59.6123C1234.86 59.3398 1236.77 58.5223 1237.86 57.1598C1238.4 56.6148 1238.67 55.7973 1238.67 54.9798C1238.67 54.7073 1238.67 54.1623 1238.67 53.8898C1238.67 53.6173 1238.67 53.3448 1238.67 53.3448L1238.4 52.7998C1237.86 51.1648 1236.49 50.0748 1234.86 50.3473C1234.04 50.3473 1233.22 50.8923 1232.95 51.7098C1232.68 52.5273 1232.68 53.6173 1233.22 54.7073L1232.95 54.9798C1232.13 54.1623 1231.04 52.7998 1231.32 51.1648C1231.32 49.5298 1232.68 48.1673 1234.04 47.3498C1235.68 46.5323 1237.31 46.8048 1238.95 47.3498C1240.58 48.1673 1241.67 49.5298 1242.22 50.8923L1242.76 51.9823C1242.76 52.2548 1243.03 52.7998 1243.03 53.0723C1243.31 53.8898 1243.31 54.7073 1243.31 55.5248C1243.03 57.1598 1242.22 58.7948 1241.13 59.8848C1240.04 60.9748 1238.67 61.7923 1237.31 62.0648C1235.95 62.6098 1234.59 62.6098 1233.22 62.8823C1227.77 62.8823 1222.6 59.6123 1220.14 54.9798C1219.05 52.5273 1218.51 49.8023 1219.05 47.3498C1219.33 44.8973 1220.14 42.4448 1221.51 40.2648H1221.23Z" fill="#FFFEFC"/>
<path d="M1225.6 59.0674C1229.68 60.9749 1234.59 61.2474 1238.95 60.9749C1241.13 60.9749 1243.58 60.4299 1246.03 60.9749C1248.49 61.2474 1250.94 62.0649 1253.39 63.4274C1255.57 64.7899 1257.75 66.6974 1258.84 69.4224C1259.39 70.7849 1259.66 72.4199 1259.39 73.7824C1259.39 74.5999 1259.11 75.1449 1258.84 75.9624C1258.84 76.2349 1258.57 76.7799 1258.3 77.0524C1258.02 77.3249 1258.02 77.8699 1257.75 78.1424C1257.21 78.6874 1256.66 79.5049 1256.12 80.0499C1255.57 80.5949 1254.75 80.8674 1253.94 81.1399C1252.3 81.6849 1250.67 81.6849 1249.3 81.1399C1247.94 80.5949 1246.58 79.2324 1246.31 77.8699C1246.03 76.5074 1246.31 75.1449 1247.12 74.0549H1247.67C1247.67 75.1449 1247.94 76.2349 1248.49 77.0524C1249.03 77.8699 1249.85 78.1424 1250.39 78.1424C1251.21 78.1424 1252.03 77.8699 1252.57 77.5974C1253.12 77.3249 1253.66 76.7799 1253.94 75.9624C1253.94 75.6899 1254.21 75.6899 1254.21 75.4174L1254.48 74.8724C1254.48 74.3274 1254.75 74.0549 1254.75 73.7824C1254.75 72.9649 1254.75 72.1474 1254.48 71.3299C1254.21 70.5124 1253.94 69.6949 1253.39 68.8774C1252.85 68.0599 1252.03 67.5149 1251.21 66.6974C1249.58 65.6074 1247.67 64.5174 1245.49 64.2449C1243.31 63.6999 1241.13 63.6999 1238.68 63.6999C1236.22 63.4274 1234.04 63.1549 1231.59 62.6099C1229.41 62.0649 1226.96 61.2474 1225.05 59.8849L1225.6 59.0674Z" fill="#FFFEFC"/>
<path d="M1231.04 29.6373C1233.5 28.0023 1236.22 27.1848 1239.22 26.6398C1240.85 26.3673 1242.22 26.3673 1244.12 26.9123C1245.76 27.4573 1247.39 28.5473 1248.21 30.1823L1248.76 31.2723L1249.3 32.3623C1249.3 32.6348 1249.57 32.6348 1249.57 32.9073L1249.85 33.4523C1249.85 33.9973 1250.12 34.2698 1250.12 34.8148C1250.12 35.3598 1250.12 35.9048 1249.85 36.4498C1249.57 36.9948 1249.57 37.5398 1249.3 38.0848C1248.76 39.1748 1247.94 39.7198 1247.12 40.2648C1245.21 41.3548 1243.31 41.3548 1241.4 40.8098C1240.58 40.5373 1239.76 39.9923 1239.22 38.9023C1238.95 38.6298 1238.95 38.0848 1238.67 37.5398C1238.67 36.9948 1238.67 36.7223 1238.67 36.1773H1239.22C1240.04 37.5398 1241.13 37.5398 1241.94 37.5398C1243.03 37.2673 1243.85 36.9948 1244.4 36.4498C1244.94 35.9048 1245.21 35.3598 1245.49 34.5423C1245.49 34.2698 1245.49 33.9973 1245.49 33.9973V33.7248V33.4523C1245.49 33.1798 1245.49 32.9073 1245.49 32.6348L1245.21 31.8173C1244.67 30.9998 1244.12 30.1823 1243.03 29.6373C1241.94 29.0923 1240.85 28.8198 1239.49 28.8198C1236.77 28.8198 1234.04 29.3648 1231.32 30.1823L1231.04 29.6373Z" fill="#FFFEFC"/>
<path d="M1236.77 11.6524C1243.31 14.1049 1249.58 11.1074 1249.58 11.1074C1249.58 11.1074 1246.58 17.3749 1249.03 23.9149C1249.03 23.9149 1240.86 22.8249 1232.14 28.5474C1237.86 19.8274 1236.77 11.6524 1236.77 11.6524Z" fill="#FFFEFC"/>
<path d="M1229.9 37.8725V31.3325H1223.36V37.8725H1229.9Z" fill="#FFFEFC"/>
<path d="M1220.42 1864.11C1218.24 1863.29 1215.78 1862.75 1213.33 1862.75C1210.88 1862.75 1208.7 1863.29 1206.79 1864.38C1202.98 1866.83 1200.52 1871.19 1201.07 1875.55C1201.34 1877.73 1202.16 1879.64 1203.52 1880.73C1204.07 1881.28 1204.88 1881.55 1205.7 1881.55C1205.97 1881.55 1206.52 1881.55 1206.79 1881.55C1207.06 1881.55 1207.34 1881.55 1207.34 1881.55L1207.88 1881.28C1209.52 1880.73 1210.61 1879.37 1210.33 1877.73C1210.33 1876.92 1209.79 1876.1 1208.97 1875.83C1208.15 1875.55 1207.06 1875.55 1205.97 1876.1V1875.28C1206.79 1874.46 1208.15 1873.37 1209.79 1873.65C1211.42 1873.65 1212.79 1875.01 1213.6 1876.37C1214.42 1878.01 1214.15 1879.64 1213.6 1881.28C1212.79 1882.91 1211.42 1884 1210.06 1884.55L1208.97 1885.09C1208.7 1885.09 1208.15 1885.36 1207.88 1885.36C1207.06 1885.64 1206.25 1885.64 1205.43 1885.64C1203.79 1885.36 1202.16 1884.55 1201.07 1883.46C1199.98 1882.37 1199.16 1881 1198.89 1879.64C1198.34 1878.28 1198.34 1876.92 1198.07 1875.55C1198.07 1870.1 1201.34 1864.93 1205.97 1862.47C1208.43 1861.38 1211.15 1860.84 1213.6 1861.38C1216.06 1861.66 1218.51 1862.47 1220.69 1863.84L1220.42 1864.11Z" fill="#FFFEFC"/>
<path d="M1201.61 1868.47C1199.71 1872.56 1199.43 1877.46 1199.71 1881.82C1199.71 1884 1200.25 1886.45 1199.71 1888.91C1199.43 1891.36 1198.62 1893.81 1197.25 1896.26C1195.89 1898.44 1193.98 1900.62 1191.26 1901.71C1189.9 1902.26 1188.26 1902.53 1186.9 1902.26C1186.08 1902.26 1185.54 1901.99 1184.72 1901.71C1184.45 1901.71 1183.9 1901.44 1183.63 1901.17C1183.36 1900.9 1182.81 1900.89 1182.54 1900.62C1181.99 1900.08 1181.18 1899.53 1180.63 1898.99C1180.09 1898.44 1179.81 1897.63 1179.54 1896.81C1179 1895.17 1179 1893.54 1179.54 1892.18C1180.09 1890.81 1181.45 1889.45 1182.81 1889.18C1184.17 1888.9 1185.54 1889.18 1186.63 1890V1890.54C1185.54 1890.54 1184.45 1890.81 1183.63 1891.36C1182.81 1891.9 1182.54 1892.72 1182.54 1893.26C1182.54 1894.08 1182.81 1894.9 1183.08 1895.45C1183.36 1895.99 1183.9 1896.54 1184.72 1896.81C1184.99 1896.81 1184.99 1897.08 1185.26 1897.08L1185.81 1897.35C1186.35 1897.35 1186.63 1897.63 1186.9 1897.63C1187.72 1897.63 1188.53 1897.62 1189.35 1897.35C1190.17 1897.08 1190.99 1896.81 1191.8 1896.26C1192.62 1895.72 1193.17 1894.9 1193.98 1894.08C1195.07 1892.45 1196.16 1890.54 1196.44 1888.36C1196.98 1886.18 1196.98 1884 1196.98 1881.55C1197.25 1879.09 1197.53 1876.92 1198.07 1874.46C1198.62 1872.28 1199.43 1869.83 1200.8 1867.92L1201.61 1868.47Z" fill="#FFFEFC"/>
<path d="M1231.04 1873.92C1232.68 1876.37 1233.5 1879.1 1234.04 1882.09C1234.31 1883.73 1234.31 1885.09 1233.77 1887C1233.22 1888.63 1232.13 1890.27 1230.5 1891.09L1229.41 1891.63L1228.32 1892.18C1228.05 1892.18 1228.05 1892.45 1227.77 1892.45L1227.23 1892.72C1226.68 1892.72 1226.41 1892.99 1225.87 1892.99C1225.32 1892.99 1224.78 1892.99 1224.23 1892.72C1223.69 1892.45 1223.14 1892.45 1222.6 1892.18C1221.51 1891.63 1220.96 1890.81 1220.42 1890C1219.33 1888.09 1219.33 1886.18 1219.87 1884.27C1220.14 1883.46 1220.69 1882.64 1221.78 1882.09C1222.05 1881.82 1222.6 1881.82 1223.14 1881.55C1223.69 1881.55 1223.96 1881.55 1224.5 1881.55V1882.09C1223.14 1882.91 1223.14 1884 1223.14 1884.82C1223.41 1885.91 1223.69 1886.73 1224.23 1887.27C1224.78 1887.82 1225.32 1888.09 1226.14 1888.36C1226.41 1888.36 1226.68 1888.36 1226.68 1888.36H1226.96H1227.23C1227.5 1888.36 1227.77 1888.36 1228.05 1888.36L1228.86 1888.09C1229.68 1887.54 1230.5 1887 1231.04 1885.91C1231.59 1884.82 1231.86 1883.73 1231.86 1882.37C1231.86 1879.64 1231.32 1876.92 1230.5 1874.19L1231.04 1873.92Z" fill="#FFFEFC"/>
<path d="M1222.82 1872.88H1229.36V1866.34H1222.82V1872.88Z" fill="#FFFEFC"/>
<path d="M1220.96 1863.29C1219.6 1861.11 1218.78 1858.66 1218.51 1856.21C1218.24 1853.75 1218.51 1851.03 1219.6 1848.58C1222.05 1843.94 1227.23 1840.4 1232.68 1840.67C1234.04 1840.67 1235.4 1840.95 1236.77 1841.49C1238.13 1842.04 1239.49 1842.85 1240.58 1843.67C1241.67 1844.76 1242.49 1846.4 1242.76 1848.03C1242.76 1848.85 1242.76 1849.67 1242.49 1850.48C1242.49 1850.76 1242.22 1851.3 1242.22 1851.57L1241.67 1852.66C1240.85 1854.03 1240.04 1855.39 1238.4 1856.21C1236.77 1857.02 1235.13 1857.02 1233.5 1856.21C1231.86 1855.66 1230.77 1854.03 1230.77 1852.39C1230.77 1850.76 1231.59 1849.39 1232.41 1848.58L1232.68 1848.85C1232.13 1849.94 1232.13 1851.03 1232.41 1851.85C1232.68 1852.66 1233.5 1853.21 1234.31 1853.21C1235.95 1853.48 1237.31 1852.39 1237.86 1850.76L1238.13 1850.21C1238.13 1849.94 1238.13 1849.67 1238.13 1849.67C1238.4 1849.12 1238.13 1848.85 1238.13 1848.58C1237.86 1847.76 1237.86 1847.21 1237.31 1846.4C1236.22 1845.03 1234.31 1844.22 1232.13 1843.94C1227.77 1843.4 1223.41 1845.85 1220.96 1849.67C1219.87 1851.57 1219.33 1853.75 1219.33 1856.21C1219.33 1858.66 1219.87 1860.84 1220.69 1863.29H1220.96Z" fill="#FFFEFC"/>
<path d="M1225.32 1843.94C1227.23 1842.58 1229.68 1841.76 1231.86 1841.22C1234.04 1840.67 1236.49 1840.4 1238.95 1840.13C1241.4 1840.13 1243.58 1840.13 1245.76 1839.58C1247.94 1839.04 1249.85 1838.22 1251.48 1837.13C1252.3 1836.59 1252.84 1835.77 1253.66 1834.95C1254.21 1834.13 1254.48 1833.31 1254.75 1832.5C1255.02 1831.68 1255.02 1830.86 1255.02 1830.05C1255.02 1829.5 1254.75 1829.23 1254.75 1828.96L1254.48 1828.41C1254.48 1828.14 1254.48 1828.14 1254.21 1827.86C1253.93 1827.05 1253.39 1826.5 1252.84 1826.23C1252.3 1825.69 1251.48 1825.68 1250.66 1825.68C1249.85 1825.68 1249.3 1825.96 1248.76 1826.78C1248.21 1827.59 1247.94 1828.41 1247.94 1829.77H1247.39C1246.85 1828.68 1246.3 1827.32 1246.58 1825.96C1246.85 1824.6 1248.21 1823.23 1249.57 1822.69C1250.94 1822.14 1252.84 1822.14 1254.21 1822.69C1255.02 1822.96 1255.57 1823.5 1256.39 1823.78C1256.93 1824.32 1257.48 1824.87 1258.02 1825.68C1258.29 1825.96 1258.57 1826.23 1258.57 1826.78C1258.84 1827.05 1258.84 1827.59 1259.11 1827.86C1259.38 1828.68 1259.38 1829.23 1259.66 1830.05C1259.93 1831.68 1259.38 1833.04 1259.11 1834.41C1258.02 1837.13 1255.84 1839.04 1253.66 1840.4C1251.48 1841.76 1249.03 1842.58 1246.3 1842.85C1243.85 1843.12 1241.4 1842.85 1239.22 1842.85C1234.59 1842.58 1229.95 1842.85 1225.87 1844.76L1225.32 1843.94Z" fill="#FFFEFC"/>
<path d="M1231.32 1873.37C1234.04 1874.19 1236.77 1874.74 1239.49 1874.74C1240.85 1874.74 1241.94 1874.46 1243.03 1873.92C1244.12 1873.37 1244.67 1872.56 1245.21 1871.74L1245.49 1870.92C1245.49 1870.65 1245.49 1870.38 1245.49 1870.1V1869.83V1869.56C1245.49 1869.29 1245.49 1869.01 1245.49 1869.01C1245.21 1868.2 1244.94 1867.65 1244.4 1867.11C1243.85 1866.56 1243.03 1866.02 1241.94 1866.02C1241.13 1866.02 1240.04 1866.02 1239.22 1867.38H1238.67C1238.67 1867.11 1238.4 1866.56 1238.67 1866.02C1238.67 1865.47 1238.95 1865.2 1239.22 1864.65C1239.76 1863.84 1240.58 1863.29 1241.4 1862.75C1243.31 1861.93 1245.21 1862.2 1247.12 1863.29C1247.94 1863.84 1248.76 1864.65 1249.3 1865.47C1249.57 1866.02 1249.57 1866.56 1249.85 1867.11C1250.12 1867.65 1249.85 1868.2 1250.12 1868.74C1250.12 1869.29 1250.12 1869.83 1249.85 1870.1L1249.57 1870.65C1249.57 1870.92 1249.3 1871.19 1249.3 1871.19L1248.76 1872.28L1248.21 1873.37C1247.39 1874.74 1245.76 1876.1 1244.12 1876.64C1242.49 1877.19 1240.85 1877.19 1239.22 1876.92C1236.22 1876.37 1233.5 1875.28 1231.04 1873.92L1231.32 1873.37Z" fill="#FFFEFC"/>
<path d="M1236.77 1891.9C1243.31 1889.45 1249.57 1892.45 1249.57 1892.45C1249.57 1892.45 1246.58 1886.18 1249.03 1879.64C1249.03 1879.64 1240.85 1880.73 1232.13 1875.01C1237.86 1883.73 1236.77 1891.9 1236.77 1891.9Z" fill="#FFFEFC"/>
<path d="M1223.43 1865.61V1872.15H1229.97V1865.61H1223.43Z" fill="#FFFEFC"/>
<path d="M40.22 1863.56C42.4 1862.2 44.8525 1861.38 47.305 1861.11C49.7575 1860.84 52.4825 1861.11 54.935 1862.2C59.5675 1864.65 63.11 1869.83 62.8375 1875.28C62.8375 1876.64 62.565 1878.01 62.02 1879.37C61.475 1880.73 60.6575 1882.09 59.84 1883.18C58.75 1884.27 57.115 1885.09 55.48 1885.36C54.6625 1885.36 53.845 1885.36 53.0275 1885.09C52.755 1885.09 52.21 1884.82 51.9375 1884.82L50.8475 1884.27C49.485 1883.45 48.1225 1882.64 47.305 1881C46.4875 1879.37 46.4875 1877.73 47.305 1876.1C47.85 1874.46 49.485 1873.37 51.12 1873.37C52.755 1873.37 54.1175 1874.19 54.935 1875.01L54.6625 1875.28C53.5725 1874.74 52.4825 1874.74 51.665 1875.01C50.8475 1875.28 50.3025 1876.1 50.3025 1876.91C50.03 1878.55 51.12 1879.91 52.755 1880.46L53.3 1880.73C53.5725 1880.73 53.845 1880.73 53.845 1880.73C54.39 1881 54.6625 1880.73 54.935 1880.73C55.7525 1880.46 56.2975 1880.46 57.115 1879.91C58.4775 1878.82 59.295 1876.91 59.5675 1874.73C60.1125 1870.37 57.66 1866.02 53.845 1863.56C51.9375 1862.47 49.7575 1861.93 47.305 1861.93C44.8525 1861.93 42.6725 1862.47 40.22 1863.29V1863.56Z" fill="#FFFEFC"/>
<path d="M59.5675 1868.2C60.93 1870.1 61.7475 1872.55 62.2925 1874.73C62.8375 1876.91 63.11 1879.37 63.3825 1881.82C63.3825 1884.27 63.3825 1886.45 63.9275 1888.63C64.4725 1890.81 65.29 1892.72 66.38 1894.36C66.925 1895.17 67.7425 1895.72 68.56 1896.53C69.3775 1897.08 70.195 1897.35 71.0125 1897.63C71.83 1897.9 72.6475 1897.9 73.465 1897.9C74.01 1897.9 74.2825 1897.63 74.555 1897.63L75.1 1897.35C75.3725 1897.35 75.3725 1897.35 75.645 1897.08C76.4625 1896.81 77.0075 1896.26 77.28 1895.72C77.825 1895.17 77.825 1894.36 77.825 1893.54C77.825 1892.72 77.5525 1892.18 76.735 1891.63C75.9175 1891.09 75.1 1890.81 73.7375 1890.81V1890.27C74.8275 1889.72 76.19 1889.18 77.5525 1889.45C78.915 1889.72 80.2775 1891.08 80.8225 1892.45C81.3675 1893.81 81.3675 1895.72 80.8225 1897.08C80.55 1897.9 80.005 1898.44 79.7325 1899.26C79.1875 1899.8 78.6425 1900.35 77.825 1900.9C77.5525 1901.17 77.28 1901.44 76.735 1901.44C76.4625 1901.71 75.9175 1901.71 75.645 1901.98C74.8275 1902.26 74.2825 1902.26 73.465 1902.53C71.83 1902.8 70.4675 1902.26 69.105 1901.98C66.38 1900.89 64.4725 1898.71 63.11 1896.53C61.7475 1894.35 60.93 1891.9 60.6575 1889.18C60.385 1886.72 60.6575 1884.27 60.6575 1882.09C60.93 1877.46 60.6575 1872.83 58.75 1868.74L59.5675 1868.2Z" fill="#FFFEFC"/>
<path d="M30.1374 1874.19C29.3199 1876.92 28.7749 1879.64 28.7749 1882.37C28.7749 1883.73 29.0474 1884.82 29.5924 1885.91C30.1374 1887 30.9549 1887.54 31.7724 1888.09L32.5899 1888.36C32.8624 1888.36 33.1349 1888.36 33.4074 1888.36H33.6799H33.9524C34.2249 1888.36 34.4974 1888.36 34.4974 1888.36C35.3149 1888.09 35.8599 1887.82 36.4049 1887.27C36.9499 1886.73 37.4949 1885.91 37.4949 1884.82C37.4949 1884 37.4949 1882.91 36.1324 1882.09V1881.55C36.4049 1881.55 36.9499 1881.28 37.4949 1881.55C38.0399 1881.55 38.3124 1881.82 38.8574 1882.09C39.6749 1882.64 40.2199 1883.46 40.7649 1884.27C41.5824 1886.18 41.3099 1888.09 40.2199 1890C39.6749 1890.81 38.8574 1891.63 38.0399 1892.18C37.4949 1892.45 36.9499 1892.45 36.4049 1892.72C35.8599 1892.99 35.3149 1892.72 34.7699 1892.99C34.2249 1892.99 33.6799 1892.99 33.4074 1892.72L32.8624 1892.45C32.5899 1892.45 32.3174 1892.18 32.3174 1892.18L31.2274 1891.63L30.1374 1891.09C28.7749 1890.27 27.4124 1888.63 26.8674 1887C26.3224 1885.36 26.3224 1883.73 26.5949 1882.09C27.1399 1879.1 28.2299 1876.37 29.5924 1873.92L30.1374 1874.19Z" fill="#FFFEFC"/>
<path d="M37.7673 1866.02H31.2273V1872.56H37.7673V1866.02Z" fill="#FFFEFC"/>
<path d="M39.6747 1863.29C40.4922 1861.11 41.0372 1858.66 41.0372 1856.21C41.0372 1853.75 40.4922 1851.57 39.4022 1849.66C36.9497 1845.85 32.5897 1843.4 28.2297 1843.94C26.0497 1844.22 24.1422 1845.03 23.0522 1846.4C22.5072 1846.94 22.2347 1847.76 22.2347 1848.58C22.2347 1848.85 22.2347 1849.39 22.2347 1849.66C22.2347 1849.94 22.2347 1850.21 22.2347 1850.21L22.5072 1850.76C23.0522 1852.39 24.4147 1853.48 26.0497 1853.21C26.8672 1853.21 27.6847 1852.66 27.9572 1851.85C28.2297 1851.03 28.2297 1849.94 27.6847 1848.85L27.9572 1848.58C28.7747 1849.39 29.8647 1850.75 29.5922 1852.39C29.5922 1854.02 28.2297 1855.39 26.8672 1856.21C25.2322 1857.02 23.5972 1856.75 21.9622 1856.21C20.3272 1855.39 19.2372 1854.03 18.6922 1852.66L18.1472 1851.57C18.1472 1851.3 17.8747 1850.76 17.8747 1850.48C17.6022 1849.67 17.6022 1848.85 17.6022 1848.03C17.8747 1846.4 18.6922 1844.76 19.7822 1843.67C20.8722 1842.58 22.2347 1841.76 23.5972 1841.49C24.9597 1840.94 26.3222 1840.94 27.6847 1840.67C33.1347 1840.67 38.3122 1843.94 40.7647 1848.58C41.8547 1851.03 42.3997 1853.75 41.8547 1856.21C41.5822 1858.66 40.7647 1861.11 39.4022 1863.29H39.6747Z" fill="#FFFEFC"/>
<path d="M35.0423 1844.21C30.9548 1842.31 26.0498 1842.03 21.6898 1842.31C19.5098 1842.31 17.0573 1842.85 14.6048 1842.31C12.1523 1842.03 9.69979 1841.22 7.24729 1839.85C5.06729 1838.49 2.88729 1836.58 1.79729 1833.86C1.25229 1832.5 0.979788 1830.86 1.25229 1829.5C1.25229 1828.68 1.52479 1828.14 1.79729 1827.32C1.79729 1827.05 2.06979 1826.5 2.34229 1826.23C2.61479 1825.96 2.61479 1825.41 2.88729 1825.14C3.43229 1824.59 3.97729 1823.78 4.52229 1823.23C5.06729 1822.69 5.88479 1822.41 6.70229 1822.14C8.33729 1821.6 9.97229 1821.6 11.3348 1822.14C12.6973 1822.69 14.0598 1824.05 14.3323 1825.41C14.6048 1826.77 14.3323 1828.14 13.5148 1829.23H12.9698C12.9698 1828.14 12.6973 1827.05 12.1523 1826.23C11.6073 1825.41 10.7898 1825.14 10.2448 1825.14C9.42729 1825.14 8.60979 1825.41 8.06479 1825.68C7.51979 1825.96 6.97479 1826.5 6.70229 1827.32C6.70229 1827.59 6.42979 1827.59 6.42979 1827.86L6.15729 1828.41C6.15729 1828.95 5.88479 1829.23 5.88479 1829.5C5.88479 1830.32 5.88479 1831.13 6.15729 1831.95C6.42979 1832.77 6.70229 1833.59 7.24729 1834.4C7.79229 1835.22 8.60979 1835.77 9.42729 1836.58C11.0623 1837.67 12.9698 1838.76 15.1498 1839.04C17.3298 1839.58 19.5098 1839.58 21.9623 1839.58C24.4148 1839.85 26.5948 1840.13 29.0473 1840.67C31.2273 1841.22 33.6798 1842.03 35.5873 1843.4L35.0423 1844.21Z" fill="#FFFEFC"/>
<path d="M29.5922 1873.65C27.1397 1875.28 24.4147 1876.1 21.4172 1876.64C19.7822 1876.92 18.4197 1876.92 16.5122 1876.37C14.8772 1875.83 13.2422 1874.74 12.4247 1873.1L11.8797 1872.01L11.3347 1870.92C11.3347 1870.65 11.0622 1870.65 11.0622 1870.38L10.7897 1869.83C10.7897 1869.29 10.5172 1869.01 10.5172 1868.47C10.5172 1867.92 10.5172 1867.38 10.7897 1866.83C11.0622 1866.29 11.0622 1865.74 11.3347 1865.2C11.8797 1864.11 12.6972 1863.56 13.5147 1863.02C15.4222 1861.93 17.3297 1861.93 19.2372 1862.47C20.0547 1862.75 20.8722 1863.29 21.4172 1864.38C21.6897 1864.65 21.6897 1865.2 21.9622 1865.74C21.9622 1866.29 21.9622 1866.56 21.9622 1867.11H21.4172C20.5997 1865.74 19.5097 1865.74 18.6922 1865.74C17.6022 1866.02 16.7847 1866.29 16.2397 1866.83C15.6947 1867.38 15.4222 1867.92 15.1497 1868.74C15.1497 1869.01 15.1497 1869.29 15.1497 1869.29V1869.56V1869.83C15.1497 1870.1 15.1497 1870.38 15.1497 1870.65L15.4222 1871.47C15.9672 1872.28 16.5122 1873.1 17.6022 1873.65C18.6922 1874.19 19.7822 1874.46 21.1447 1874.46C23.8697 1874.46 26.5947 1873.92 29.3197 1873.1L29.5922 1873.65Z" fill="#FFFEFC"/>
<path d="M23.8699 1891.9C17.3299 1889.45 11.0624 1892.45 11.0624 1892.45C11.0624 1892.45 14.0599 1886.18 11.6074 1879.64C11.6074 1879.64 19.7824 1880.73 28.5024 1875.01C22.7799 1883.73 23.8699 1891.9 23.8699 1891.9Z" fill="#FFFEFC"/>
<path d="M30.9073 1865.82V1872.36H37.4474V1865.82H30.9073Z" fill="#FFFEFC"/>
<path d="M1189.08 1876.91H73.7372L73.4647 1875.82C69.9222 1851.3 52.7547 1830.32 29.3197 1822.41L28.5022 1822.14V75.9624L29.5922 75.6899C53.8447 70.7849 73.7372 51.9824 80.0047 28.2749L80.2772 27.1849H1185.81L1186.08 28.2749C1192.35 50.8924 1210.06 68.8774 1232.95 74.8724L1234.04 75.1449V1827.59L1233.22 1827.86C1211.42 1835.22 1194.8 1853.75 1189.62 1876.1L1189.08 1876.91ZM75.9172 1874.46H1186.9C1192.35 1851.84 1208.97 1833.31 1231.04 1825.68V77.0524C1208.15 70.5124 1190.17 52.5274 1183.63 29.9099H82.1847C75.3722 53.8899 55.2072 72.6924 30.9547 78.1424V1820.23C54.6622 1828.68 72.1022 1849.66 75.9172 1874.46Z" fill="#FFFEFC"/>
</svg>
