<?xml version="1.0" standalone="no"?>
<!DOCTYPE svg PUBLIC "-//W3C//DTD SVG 20010904//EN"
 "http://www.w3.org/TR/2001/REC-SVG-20010904/DTD/svg10.dtd">
<svg version="1.0" xmlns="http://www.w3.org/2000/svg"
 width="64.000000pt" height="64.000000pt" viewBox="0 0 64.000000 64.000000"
 preserveAspectRatio="xMidYMid meet">
<metadata>
Created by potrace 1.11, written by Peter Selinger 2001-2013
</metadata>
<g transform="translate(0.000000,64.000000) scale(0.100000,-0.100000)"
fill="#000000" stroke="none">
<path d="M56 452 c-3 -3 -6 -15 -6 -28 0 -22 23 -35 48 -27 13 5 17 52 5 54
-5 0 -16 2 -25 4 -9 2 -19 0 -22 -3z"/>
<path d="M477 451 c-2 -5 0 -229 2 -256 1 -6 34 -10 81 -11 l80 0 0 57 c0 55
-1 56 -25 51 -24 -4 -29 -12 -26 -39 1 -8 -10 -13 -27 -13 l-29 0 -1 88 c0 48
0 94 -1 103 -1 16 -49 33 -54 20z"/>
<path d="M162 318 l3 -133 50 0 c47 0 50 2 53 28 3 21 9 27 27 27 18 0 24 -6
27 -27 3 -26 6 -28 53 -28 l50 0 3 133 3 132 -29 0 -29 0 1 -102 1 -103 -27
-3 c-28 -3 -28 -3 -28 53 0 55 0 56 -27 53 -25 -3 -28 -7 -29 -48 -2 -63 -2
-62 -26 -58 -22 3 -23 7 -22 106 l0 102 -28 0 -29 0 3 -132z"/>
<path d="M0 320 c0 -25 4 -30 25 -30 23 0 25 -3 25 -50 0 -27 3 -50 8 -51 4 0
17 -2 30 -5 18 -3 22 1 23 24 0 15 1 53 2 85 l2 57 -57 0 c-58 0 -58 0 -58
-30z"/>
</g>
</svg>
