<svg width="93" height="196" viewBox="0 0 93 196" fill="none" xmlns="http://www.w3.org/2000/svg">
<path d="M25.8378 172.666C25.8378 181.867 33.2968 189.326 42.498 189.326C51.6992 189.326 59.1582 181.867 59.1582 172.666C59.1582 163.464 51.6992 156.005 42.498 156.005C33.2968 156.005 25.8378 163.464 25.8378 172.666Z" fill="#E6E9EF"/>
<path d="M30.7596 172.666C30.7596 179.148 36.0148 184.403 42.4975 184.403C48.9801 184.403 54.2354 179.148 54.2354 172.666C54.2354 166.183 48.9801 160.928 42.4975 160.928C36.0148 160.928 30.7596 166.183 30.7596 172.666Z" fill="#D5D6DB"/>
<path d="M19.59 195.194C21.2938 194.058 23.5657 191.976 23.9443 188.189L23.9443 172.097C23.9443 170.961 23.5657 169.825 22.9977 168.879L21.4832 166.418L21.4832 151.461C21.4832 150.515 20.7259 149.757 19.7793 149.757C18.8327 149.757 18.0754 150.515 18.0754 151.461L18.0754 194.248C17.6968 195.194 18.8327 195.762 19.59 195.194Z" fill="#E1E6E9"/>
<path d="M19.59 195.194C21.2939 194.058 23.5657 191.976 23.9443 188.189L23.9443 172.097C23.9443 170.961 23.5657 169.825 22.9977 168.879L21.4832 166.417L22.6191 168.311C23.1871 169.257 23.5657 170.393 23.5657 171.529L23.5657 187.621C23.1871 191.408 20.9152 193.49 19.2113 194.626C18.8327 194.816 18.2647 194.816 18.0754 194.626C18.2647 195.384 19.022 195.762 19.59 195.194Z" fill="#EBF0F3"/>
<path d="M60.2938 188.947L61.0511 194.248C61.0511 194.437 61.2404 194.626 61.6191 194.626C61.9977 194.626 62.187 194.437 62.187 194.058L61.6191 187.621L62.3764 187.621L62.9443 194.248C62.9443 194.437 63.1336 194.816 63.5123 194.816C63.8909 194.816 64.0802 194.626 64.0802 194.248L63.8909 187.811L64.8375 187.811L65.0268 194.437C65.0268 194.816 65.2162 195.005 65.5948 195.005C65.9734 195.005 66.1628 194.816 66.1628 194.437L66.3521 187.811L67.2987 187.811L67.1094 194.248C67.1094 194.626 67.2987 194.816 67.6773 194.816C67.8666 194.816 68.2453 194.626 68.2453 194.248L68.8132 187.621L69.7598 187.621L69.1919 194.058C69.1919 194.437 69.3812 194.626 69.7598 194.626C69.9492 194.626 70.3278 194.437 70.3278 194.248L71.0851 188.947C71.2744 188.189 71.2744 187.243 71.2744 186.485L71.2744 185.16C71.2744 183.456 70.8958 181.563 70.1385 180.049L69.1919 177.966C69.1919 177.966 69.1919 177.777 69.0026 177.777C68.4346 176.83 68.056 175.883 68.056 174.748L68.6239 151.461C68.6239 150.136 67.6773 149 66.1628 149C64.8375 149 63.7016 150.136 63.7016 151.461L64.2696 174.937C64.2696 176.073 63.8909 177.019 63.323 177.966C63.323 177.966 63.323 178.155 63.1336 178.155L62.187 180.238C61.4298 181.942 61.0511 183.646 61.0511 185.35L61.0511 186.296C60.1045 187.243 60.2938 188 60.2938 188.947Z" fill="#E1E6E9"/>
<path opacity="0.33" d="M85.9612 53.2679L89.5757 89.4132C90.3367 96.8325 90.3367 103.301 82.7272 103.301L20.7094 103.301C13.0999 103.301 12.7194 96.8325 13.4804 89.4132L16.9047 53.2679C17.2851 49.0827 20.8997 45.8486 25.2752 45.8486L77.5907 45.8486C81.9662 46.0389 85.3905 49.0827 85.9612 53.2679Z" fill="url(#paint0_linear)"/>
<path opacity="0.33" d="M91.2879 37.8589C87.1026 35.0054 81.2052 31.7713 76.6395 30.2494C65.9861 26.6349 56.284 26.6349 56.284 26.6349C56.284 26.6349 46.5818 26.4446 35.9285 30.2494C31.3627 31.7713 25.2751 35.0054 21.2801 37.8589C20.3289 38.4297 19.5679 39.5711 19.5679 40.7125C19.5679 42.4247 20.8996 43.9466 22.6118 43.9466L56.284 43.5661L89.9562 43.9466C91.6683 43.9466 93 42.6149 93 40.7125C93 39.3808 92.239 38.4297 91.2879 37.8589Z" fill="url(#paint1_linear)"/>
<path d="M86.3427 13.2168C81.3965 9.81854 74.3577 6.04264 68.8408 4.15469C56.0948 -0.187588 44.4903 0.00120637 44.4903 0.00120637C44.4903 0.00120637 32.8857 -0.187589 20.1397 4.15469C14.6228 6.04264 7.39378 9.81854 2.63782 13.2168C1.49639 13.972 0.735435 15.1048 0.735435 16.6152C0.735435 17.1815 0.735435 19.4471 0.735435 20.2023C0.735435 21.7126 2.82805 20.391 4.34995 20.391L44.4903 20.0135L84.6306 20.3911C85.772 20.3911 88.2451 21.5238 88.2451 20.3911C88.2451 19.4471 88.2451 17.5591 88.2451 16.6152C88.2451 15.1048 87.4842 13.972 86.3427 13.2168Z" fill="#E1C298"/>
<path d="M86.3427 13.2168C81.3965 9.81854 74.3577 6.04264 68.8408 4.15469C56.0948 -0.187588 44.4903 0.00120637 44.4903 0.00120637C44.4903 0.00120637 32.8857 -0.187589 20.1397 4.15469C14.6228 6.04264 7.39378 9.81854 2.63782 13.2168C1.49639 13.972 0.735435 15.1048 0.735435 16.6152C0.735435 17.1815 0.735435 19.4471 0.735435 20.2023C0.735435 21.7126 2.82805 20.391 4.34995 20.391L44.4903 20.0135L84.6306 20.3911C85.772 20.3911 88.2451 21.5238 88.2451 20.3911C88.2451 19.4471 88.2451 17.5591 88.2451 16.6152C88.2451 15.1048 87.4842 13.972 86.3427 13.2168Z" fill="url(#paint2_linear)"/>
<path d="M86.3427 13.2168C81.3965 9.81854 74.3577 6.04264 68.8408 4.15469C56.0948 -0.187588 44.4903 0.00120637 44.4903 0.00120637C44.4903 0.00120637 32.8857 -0.187589 20.1397 4.15469C14.6228 6.04264 7.39378 9.81854 2.63782 13.2168C1.49639 13.972 0.735435 15.1048 0.735435 16.6152C0.735435 17.1815 0.735435 19.4471 0.735435 20.2023C0.735435 21.7126 2.82805 20.391 4.34995 20.391L44.4903 20.0135L84.6306 20.3911C85.772 20.3911 88.2451 21.5238 88.2451 20.3911C88.2451 19.4471 88.2451 17.5591 88.2451 16.6152C88.2451 15.1048 87.4842 13.972 86.3427 13.2168Z" fill="url(#paint3_linear)"/>
<path d="M21.832 22.968L14.0322 22.968L14.0322 32.8473L21.832 32.8473L21.832 22.968Z" fill="#BDA680"/>
<path d="M73.8261 22.8286L66.0264 22.8286L66.0264 32.7079L73.8261 32.7079L73.8261 22.8286Z" fill="#BDA680"/>
<path d="M21.832 24.3044L14.0322 24.3044L14.0322 34.1837L21.832 34.1837L21.832 24.3044Z" fill="url(#paint4_linear)"/>
<path d="M73.8261 24.165L66.0264 24.165L66.0264 34.0443L73.8261 34.0443L73.8261 24.165Z" fill="url(#paint5_linear)"/>
<path d="M80.5894 40.3372L84.3798 79.902C85.1378 88.0813 78.6943 95.1193 70.5451 95.1193L16.5332 95.1193C8.38404 95.1193 1.94051 88.0813 2.69857 79.902L6.48888 40.3372C6.86791 35.772 10.8477 32.3481 15.3961 32.3481L71.4927 32.3481C76.2306 32.1579 80.0209 35.5818 80.5894 40.3372Z" fill="#FFF5EB"/>
<path d="M80.5748 40.3381L84.3795 79.9077C85.1405 88.088 78.6724 95.1268 70.4921 95.1268L16.2742 95.1268C8.0939 95.1268 1.62578 88.088 2.38674 79.9077L6.19151 40.3381C6.57199 35.7724 10.567 32.3481 15.1327 32.3481L71.4433 32.3481C76.1993 32.1579 80.004 35.5822 80.5748 40.3381Z" fill="url(#paint6_radial)"/>
<path d="M75.1083 43.0763L78.6873 78.8158C79.2524 84.5629 74.5431 89.412 68.7036 89.412L18.4083 89.412C12.3804 89.412 7.67105 84.5629 8.42454 78.8158L12.0036 43.0763C12.3804 40.2028 14.8292 38.0476 17.8431 38.0476L69.2687 38.0476C72.2827 38.0476 74.7315 40.2028 75.1083 43.0763Z" fill="#703000"/>
<g filter="url(#filter0_f)">
<path d="M67.9992 48.1976L71.0978 75.5574C71.4421 78.9773 68.3435 81.8025 64.5563 81.8025L22.5528 81.8025C18.5934 81.8025 15.4948 78.8286 16.0113 75.5574L19.1099 48.1976C19.282 46.7107 20.6592 45.6698 22.3806 45.6698L64.7285 45.6698C66.4499 45.5211 67.9992 46.7107 67.9992 48.1976Z" fill="url(#paint7_radial)"/>
</g>
<path d="M86.3427 17.3684C81.3965 13.8809 74.3577 10.0059 68.8408 8.06842C56.0948 3.61218 44.4903 3.80593 44.4903 3.80593C44.4903 3.80593 32.8857 3.61218 20.1397 8.06842C14.6228 10.0059 7.39378 13.8809 2.63782 17.3684C1.49639 18.1434 0.735435 19.3059 0.735435 20.8559C0.735435 22.9872 2.25733 24.7309 4.34995 24.7309L44.4903 24.3434L84.6306 24.7309C86.533 24.7309 88.2451 22.9872 88.2451 20.8559C88.2451 19.3059 87.4842 18.1434 86.3427 17.3684Z" fill="white"/>
<path d="M86.3427 17.3684C81.3965 13.8809 74.3577 10.0059 68.8408 8.06842C56.0948 3.61218 44.4903 3.80593 44.4903 3.80593C44.4903 3.80593 32.8857 3.61218 20.1397 8.06842C14.6228 10.0059 7.39378 13.8809 2.63782 17.3684C1.49639 18.1434 0.735435 19.3059 0.735435 20.8559C0.735435 22.9872 2.25733 24.7309 4.34995 24.7309L44.4903 24.3434L84.6306 24.7309C86.533 24.7309 88.2451 22.9872 88.2451 20.8559C88.2451 19.3059 87.4842 18.1434 86.3427 17.3684Z" fill="url(#paint8_linear)"/>
<path d="M80.4028 19.325C76.1321 16.9224 69.9202 14.1193 65.2613 12.7177C54.1964 9.51418 44.2963 9.51418 44.2963 9.51418C44.2963 9.51418 34.202 9.31396 23.3312 12.7177C18.4782 14.1193 12.2663 16.9224 8.18982 19.325C7.21921 19.9257 6.44271 20.7266 6.44271 21.9279C6.44271 23.5297 7.80157 24.731 9.54866 24.731L44.4904 24.3306L79.4322 24.731C81.1792 24.731 82.5381 23.5297 82.5381 21.9279C82.5381 20.9263 81.3734 19.9257 80.4028 19.325Z" fill="#B17846"/>
<path d="M80.4028 19.325C76.1321 16.9224 69.9202 14.1193 65.2613 12.7177C54.1964 9.51418 44.2963 9.51418 44.2963 9.51418C44.2963 9.51418 34.202 9.31396 23.3312 12.7177C18.4782 14.1193 12.2663 16.9224 8.18982 19.325C7.21921 19.9257 6.44271 20.7266 6.44271 21.9279C6.44271 23.5297 7.80157 24.731 9.54866 24.731L44.4904 24.3306L79.4322 24.731C81.1792 24.731 82.5381 23.5297 82.5381 21.9279C82.5381 20.9263 81.3734 19.9257 80.4028 19.325Z" fill="url(#paint9_linear)"/>
<defs>
<filter id="filter0_f" x="3.95508" y="33.6572" width="79.1691" height="60.1453" filterUnits="userSpaceOnUse" color-interpolation-filters="sRGB">
<feFlood flood-opacity="0" result="BackgroundImageFix"/>
<feBlend mode="normal" in="SourceGraphic" in2="BackgroundImageFix" result="shape"/>
<feGaussianBlur stdDeviation="6" result="effect1_foregroundBlur"/>
</filter>
<linearGradient id="paint0_linear" x1="10.089" y1="38.6201" x2="101.403" y2="122.96" gradientUnits="userSpaceOnUse">
<stop/>
<stop offset="1" stop-opacity="0"/>
</linearGradient>
<linearGradient id="paint1_linear" x1="30.2807" y1="16.7588" x2="121.595" y2="101.098" gradientUnits="userSpaceOnUse">
<stop/>
<stop offset="1" stop-opacity="0"/>
</linearGradient>
<linearGradient id="paint2_linear" x1="81.9685" y1="16.0476" x2="54.4211" y2="7.43299" gradientUnits="userSpaceOnUse">
<stop stop-color="#875717"/>
<stop offset="1" stop-color="#DDCDB8" stop-opacity="0"/>
</linearGradient>
<linearGradient id="paint3_linear" x1="40.1161" y1="7.55179" x2="13.4873" y2="10.4267" gradientUnits="userSpaceOnUse">
<stop stop-color="#DDCDB8" stop-opacity="0"/>
<stop offset="1" stop-color="#865515"/>
</linearGradient>
<linearGradient id="paint4_linear" x1="17.9321" y1="24.3044" x2="17.9321" y2="34.1837" gradientUnits="userSpaceOnUse">
<stop stop-color="#6A4000"/>
<stop offset="1" stop-color="#BDA680" stop-opacity="0"/>
</linearGradient>
<linearGradient id="paint5_linear" x1="69.9263" y1="24.165" x2="69.9263" y2="34.0443" gradientUnits="userSpaceOnUse">
<stop stop-color="#6A4000"/>
<stop offset="1" stop-color="#BDA680" stop-opacity="0"/>
</linearGradient>
<radialGradient id="paint6_radial" cx="0" cy="0" r="1" gradientUnits="userSpaceOnUse" gradientTransform="translate(46.3913 64.6811) rotate(178.379) scale(67.2392 51.4123)">
<stop offset="0.604167" stop-color="#AB7342" stop-opacity="0"/>
<stop offset="1" stop-color="#F4B984"/>
</radialGradient>
<radialGradient id="paint7_radial" cx="0" cy="0" r="1" gradientUnits="userSpaceOnUse" gradientTransform="translate(43.5395 63.7299) rotate(169.668) scale(26.2868 17.3351)">
<stop stop-color="#FFE0C2"/>
<stop offset="0.0001" stop-color="#FF8816"/>
<stop offset="1" stop-color="#C28951"/>
</radialGradient>
<linearGradient id="paint8_linear" x1="52.0998" y1="26.6333" x2="52.0998" y2="9.51184" gradientUnits="userSpaceOnUse">
<stop stop-color="#C9AF68"/>
<stop offset="1" stop-color="#E8D5A1" stop-opacity="0.15"/>
</linearGradient>
<linearGradient id="paint9_linear" x1="50.3153" y1="25.5297" x2="50.3153" y2="8.51085" gradientUnits="userSpaceOnUse">
<stop stop-color="#4A2300"/>
<stop offset="1" stop-color="#B17846" stop-opacity="0"/>
</linearGradient>
</defs>
</svg>
